<svg width="1440" height="558" viewBox="0 0 1440 558" fill="none" xmlns="http://www.w3.org/2000/svg">
<g clip-path="url(#clip0)">
<circle cx="1069" cy="404" r="189" fill="#2F89FC" stroke="#93C2FF" stroke-width="20"/>
<circle cx="877.5" cy="445.5" r="147.5" fill="#2F89FC" stroke="#93C2FF" stroke-width="20"/>
<circle cx="1068.5" cy="403.5" r="143.5" fill="#2F89FC" stroke="#93C2FF" stroke-width="20"/>
<path d="M-61 297.989V519.989H1589.5C1631.5 432.655 1641.71 172.979 1465.5 153.491C1248.5 129.492 1086.5 403.489 979 381.989C871.5 360.489 732.5 350.489 590.5 411.989C448.5 473.489 376 519.989 256 411.989C160 325.589 4.66666 299.989 -61 297.989Z" fill="#68AAFF"/>
<path d="M-61 335.989V557.989H1589.5C1631.5 470.655 1641.71 210.979 1465.5 191.491C1248.5 167.492 1086.5 441.489 979 419.989C871.5 398.489 732.5 388.489 590.5 449.989C448.5 511.489 376 557.989 256 449.989C160 363.589 4.66666 337.989 -61 335.989Z" fill="#2F89FC"/>
</g>
<defs>
<clipPath id="clip0">
<rect width="1440" height="558" fill="white"/>
</clipPath>
</defs>
</svg>
